# xmcd CD database file
#
# Track frame offsets:
#	183
#	26448
#	56330
#	77970
#	138773
#	176293
#	197888
#
# Disc length: 3221 seconds
#
# Revision: 0
# Processed by: cddbd v1.4PL0 Copyright (c) Steve Scherf et al.
# Submitted via: CDex 1.40Release
#
DISCID=510c9307
DTITLE=King, Freddie - Live In Antibes, 1974
DYEAR=1900
DGENRE=Blues
TTITLE0=Going Down The Highway
TTITLE1=Big Legged Woman
TTITLE2=Woman Across The River
TTITLE3=Have You Ever Loved A Woman
TTITLE4=I A'nt Nobody Business If I Do
TTITLE5=Hideway
TTITLE6=Let The Good Times Roll
EXTD=ID3G: 0
EXTT0=
EXTT1=
EXTT2=
EXTT3=
EXTT4=
EXTT5=
EXTT6=
PLAYORDER=
